<svg xmlns="http://www.w3.org/2000/svg" width="16" height="16" viewBox="0 0 16 16">
    <g fill="none" fill-rule="evenodd">
<!--        <polygon fill="#E2EA8A" fill-opacity=".7" points="1 16 16 16 16 9 1 9"/>-->
        <polygon fill="#E2EA8A" fill-opacity=".8" points="7 1 3 5 7 5"/>
<!--        <polygon fill="#9AA7B0" fill-opacity=".8" points="8 1 8 6 3 6 3 8 13 8 13 1"/>-->

        <polygon fill="#E2EA8A" fill-opacity=".8"
                 points="8,1 8,6 3,6 3,15 13,15 13,1"/>
<!--        <polygon opacity=".7" fill="black" id="lbracket"-->
<!--                 points="4,8 4,13 6,13 6,12 5,12 5,9 6,9 6,8"/>-->
<!--        <g id="x" opacity=".7">-->
<!--            <line x1="6.5" y1="9" x2="9.5" y2="12" stroke="black" stroke-width="0.8" />-->
<!--            <line x1="6.5" y1="12" x2="9.5" y2="9" stroke="black" stroke-width="0.8" />-->
<!--        </g>-->
<!--        <polygon id="right-bracket" opacity=".7" fill="black"-->
<!--                 points="12,8 12,13 10,13 10,12 11,12 11,9 10,9 10,8"/>-->

<!--        <polygon opacity=".7" fill="black" id="lbracket"-->
<!--                 points="2 10 2 15 4 15 4 14 3 14 3 11 4 11 4 10"/>-->
<!--        <polygon opacity=".7" fill="black" id="lbracket"-->
<!--                 points="2,10 2,15 4,15 4,14 3,14 3,11 4,11 4,10"/>-->
<!--        <g id="x" opacity=".7">-->
<!--            <line x1="5" y1="10.5" x2="8" y2="14.5" stroke="black" stroke-width="0.9" />-->
<!--            <line x1="5" y1="14.5" x2="8" y2="10.5" stroke="black" stroke-width="0.9" />-->
<!--        </g>-->
        <text id="x-text" x="3.9" y="12.5" fill="black" font-family="Helvetica"
              font-size="8">[x]</text>
<!--        <polygon id="right-bracket" opacity=".7" fill="black"-->
<!--                 points="11,10 11,15 9,15 9,14 10,14 10,11 9,11 9,10"/>-->
    </g>
</svg>